<?xml version="1.0" encoding="utf-8"?>
<!-- Generator: Adobe Illustrator 24.0.1, SVG Export Plug-In . SVG Version: 6.00 Build 0)  -->
<svg version="1.1" id="Layer_1" xmlns="http://www.w3.org/2000/svg" xmlns:xlink="http://www.w3.org/1999/xlink" x="0px" y="0px"
	 viewBox="0 0 79 79" style="enable-background:new 0 0 79 79;" xml:space="preserve">
<style type="text/css">
	.st0{fill:none;}
	.st1{fill:white;}
	.st2{fill:white;}
</style>
<g id="Lag_2">
	<rect class="st0" width="79" height="79"/>
</g>
<g id="Lag_3">
	<g>
		<path class="st1" d="M75,4v71H4V4H75 M79,0H0v79h79V0L79,0z"/>
	</g>
	<g>
		<path class="st2" d="M46.3,57.7l-4.4-11.4H27.5l-4.4,11.4h-4.2L33,21.9h3.5l14,35.8C50.5,57.7,46.3,57.7,46.3,57.7z M40.5,42.6
			l-4.2-11.1c-0.5-1.4-1.1-3.1-1.7-5.2c-0.4,1.6-0.9,3.3-1.5,5.2L29,42.6H40.5z"/>
		<path class="st2" d="M54.5,23.7c0-0.9,0.2-1.6,0.7-2s1-0.6,1.7-0.6s1.2,0.2,1.7,0.7c0.5,0.4,0.7,1.1,0.7,2s-0.2,1.6-0.7,2
			s-1,0.7-1.7,0.7s-1.3-0.2-1.7-0.7C54.8,25.3,54.5,24.6,54.5,23.7z M58.9,57.7h-4.1V31h4.1V57.7z"/>
	</g>
</g>
</svg>
